<svg xmlns="http://www.w3.org/2000/svg" viewBox="0 0 259 96"><g fill="none" stroke="#F6F3EA" stroke-width="4.5" stroke-linejoin="round"><path d="M0 0C-11-13-13-33 0-37C13-33 11-13 0 0Z" transform="translate(48 60) rotate(-72)"/><path d="M0 0C-11-13-13-33 0-37C13-33 11-13 0 0Z" transform="translate(48 60) rotate(-36)"/><path d="M0 0C-11-13-13-33 0-37C13-33 11-13 0 0Z" transform="translate(48 60) rotate(0)"/><path d="M0 0C-11-13-13-33 0-37C13-33 11-13 0 0Z" transform="translate(48 60) rotate(36)"/><path d="M0 0C-11-13-13-33 0-37C13-33 11-13 0 0Z" transform="translate(48 60) rotate(72)"/></g><rect x="18" y="73" width="60" height="8" rx="4" fill="#FFC700"/><circle cx="48" cy="60" r="6.5" fill="#FFC700" stroke="#F6F3EA" stroke-width="4.5"/><path d="M111.036 52.0V19.799999999999997H131.276V25.32H117.108V33.094H130.172V38.614000000000004H117.108V52.0ZM135.784 52.0V19.799999999999997H141.57999999999998V52.0ZM158.876 52.644Q155.472 52.644 152.758 51.263999999999996Q150.044 49.884 148.48000000000002 47.262Q146.91600000000003 44.64 146.91600000000003 40.96V40.224000000000004Q146.91600000000003 36.544 148.48000000000002 33.922Q150.044 31.3 152.758 29.92Q155.472 28.54 158.876 28.54Q162.28 28.54 164.99400000000003 29.92Q167.70800000000003 31.3 169.27200000000002 33.922Q170.836 36.544 170.836 40.224000000000004V40.96Q170.836 44.64 169.27200000000002 47.262Q167.70800000000003 49.884 164.99400000000003 51.263999999999996Q162.28 52.644 158.876 52.644ZM158.876 47.492Q161.544 47.492 163.29200000000003 45.766999999999996Q165.04000000000002 44.042 165.04000000000002 40.822V40.362Q165.04000000000002 37.141999999999996 163.315 35.417Q161.59 33.692 158.876 33.692Q156.208 33.692 154.46 35.417Q152.71200000000002 37.141999999999996 152.71200000000002 40.362V40.822Q152.71200000000002 44.042 154.46 45.766999999999996Q156.208 47.492 158.876 47.492ZM178.012 52.0 174.792 29.184H180.542L182.566 48.09H183.394L186.338 29.184H195.63L198.574 48.09H199.402L201.426 29.184H207.176L203.956 52.0H194.34199999999998L191.398 33.094H190.57L187.626 52.0ZM222.632 52.644Q219.22799999999998 52.644 216.629 51.195Q214.03 49.746 212.58100000000002 47.101Q211.132 44.456 211.132 40.868V40.316Q211.132 36.728 212.558 34.083Q213.98399999999998 31.438 216.56 29.988999999999997Q219.136 28.54 222.54 28.54Q225.898 28.54 228.382 30.035Q230.86599999999999 31.53 232.24599999999998 34.175Q233.62599999999998 36.82 233.62599999999998 40.316V42.294H217.01999999999998Q217.112 44.64 218.76799999999997 46.112Q220.42399999999998 47.584 222.816 47.584Q225.254 47.584 226.404 46.526Q227.554 45.468 228.152 44.18L232.89 46.664Q232.24599999999998 47.86 231.027 49.263Q229.808 50.666 227.784 51.655Q225.76 52.644 222.632 52.644ZM217.066 37.97H227.738Q227.554 35.992000000000004 226.151 34.79600000000001Q224.748 33.6 222.494 33.6Q220.148 33.6 218.76799999999997 34.79600000000001Q217.38799999999998 35.992000000000004 217.066 37.97ZM238.778 52.0V29.184H244.482V31.76H245.31Q245.816 30.38 246.98899999999998 29.735999999999997Q248.16199999999998 29.092 249.726 29.092H252.486V34.244H249.634Q247.426 34.244 246.0 35.417Q244.57399999999998 36.59 244.57399999999998 39.028V52.0Z" fill="#F6F3EA"/><path d="M114.114 78.0V67.40899999999999H110.816V65.573H119.384V67.40899999999999H116.086V78.0ZM126.947 78.0V65.59H134.308V67.324H128.90200000000002V70.707H133.713V72.441H128.90200000000002V76.266H134.308V78.0ZM145.93400000000003 78.17Q144.67600000000002 78.17 143.758 77.745Q142.84 77.32 142.3385 76.538Q141.83700000000002 75.756 141.83700000000002 74.702H143.80900000000003Q143.80900000000003 75.501 144.387 75.96000000000001Q144.965 76.419 145.96800000000002 76.419Q146.90300000000002 76.419 147.447 75.9685Q147.991 75.518 147.991 74.719Q147.991 74.056 147.61700000000002 73.5715Q147.24300000000002 73.087 146.54600000000002 72.917L145.05 72.492Q143.639 72.101 142.87400000000002 71.1405Q142.109 70.18 142.109 68.854Q142.109 67.8 142.5765 67.035Q143.044 66.27 143.90250000000003 65.8365Q144.76100000000002 65.40299999999999 145.93400000000003 65.40299999999999Q147.702 65.40299999999999 148.739 66.3295Q149.776 67.256 149.793 68.803H147.804Q147.804 68.038 147.311 67.596Q146.818 67.154 145.917 67.154Q145.05 67.154 144.56550000000001 67.5705Q144.08100000000002 67.987 144.08100000000002 68.718Q144.08100000000002 69.398 144.44650000000001 69.874Q144.812 70.35 145.49200000000002 70.554L147.03900000000002 70.996Q148.45000000000002 71.37 149.2065 72.322Q149.96300000000002 73.274 149.96300000000002 74.651Q149.96300000000002 75.705 149.4615 76.49549999999999Q148.96 77.286 148.05900000000003 77.72800000000001Q147.15800000000002 78.17 145.93400000000003 78.17ZM160.314 78.0V67.40899999999999H157.016V65.573H165.584V67.40899999999999H162.286V78.0ZM172.97700000000003 78.0V65.59H176.70000000000002Q178.485 65.59 179.52200000000002 66.44Q180.55900000000003 67.28999999999999 180.55900000000003 68.786Q180.55900000000003 69.619 180.18500000000003 70.23949999999999Q179.81100000000004 70.86 179.16500000000002 71.19999999999999Q178.51900000000003 71.53999999999999 177.68600000000004 71.53999999999999V71.42099999999999Q178.604 71.404 179.3095 71.761Q180.01500000000001 72.118 180.423 72.815Q180.83100000000002 73.512 180.83100000000002 74.481Q180.83100000000002 75.55199999999999 180.35500000000002 76.351Q179.87900000000002 77.15 179.00350000000003 77.575Q178.12800000000001 78.0 176.92100000000002 78.0ZM174.89800000000002 76.317H176.78500000000003Q177.73700000000002 76.317 178.29800000000003 75.80699999999999Q178.85900000000004 75.297 178.85900000000004 74.396Q178.85900000000004 73.478 178.29800000000003 72.9255Q177.73700000000002 72.373 176.78500000000003 72.373H174.89800000000002ZM174.89800000000002 70.741H176.68300000000002Q177.56700000000004 70.741 178.06850000000003 70.2735Q178.57000000000002 69.806 178.57000000000002 69.007Q178.57000000000002 68.191 178.06850000000003 67.732Q177.56700000000004 67.273 176.70000000000002 67.273H174.89800000000002ZM188.547 78.0V65.59H195.90800000000002V67.324H190.502V70.707H195.313V72.441H190.502V76.266H195.90800000000002V78.0ZM203.74300000000002 78.0V65.59H207.31300000000005Q208.57100000000003 65.59 209.48050000000003 66.066Q210.39000000000004 66.542 210.90000000000003 67.4005Q211.41000000000003 68.259 211.41000000000003 69.432V74.141Q211.41000000000003 75.314 210.90000000000003 76.181Q210.39000000000004 77.048 209.48050000000003 77.524Q208.57100000000003 78.0 207.31300000000005 78.0ZM205.73200000000003 76.181H207.31300000000005Q208.29900000000004 76.181 208.86000000000004 75.637Q209.42100000000005 75.093 209.42100000000005 74.141V69.432Q209.42100000000005 68.497 208.86000000000004 67.953Q208.29900000000004 67.40899999999999 207.31300000000005 67.40899999999999H205.73200000000003Z" fill="#FFC700"/></svg>